<svg width="105" height="115" viewBox="0 0 105 115" fill="none" xmlns="http://www.w3.org/2000/svg">
<path d="M38.9648 8.3877C42.9688 8.19238 45.8252 8.09473 47.5342 8.09473C65.3564 8.09473 74.2676 17.1035 74.2676 35.1211C74.2676 42.8848 72.5342 49.0127 69.0674 53.5049C65.6006 57.9482 60.4248 60.1699 53.54 60.1699C48.3643 60.1699 43.3594 59.2666 38.5254 57.46C38.5254 42.3721 38.6719 26.0146 38.9648 8.3877ZM21.6064 100.819C22.1924 88.6123 22.4854 73.2559 22.4854 54.75C22.4854 39.0273 22.2412 25.4287 21.7529 13.9541C21.6553 12.1475 16.2109 10.707 5.41992 9.63281C4.58984 6.41016 4.6875 3.26074 5.71289 0.18457C10.8887 0.379883 16.4551 0.501953 22.4121 0.550781C28.3691 0.599609 35.2051 0.575195 42.9199 0.477539C50.6836 0.379883 56.3721 0.331055 59.9854 0.331055C73.5107 0.331055 83.8135 3.50488 90.8936 9.85254C97.9736 16.2002 101.514 24.6719 101.514 35.2676C101.514 45.9609 97.583 54.335 89.7217 60.3896C81.9092 66.4443 71.7529 69.4717 59.2529 69.4717C55.7373 69.4717 52.5879 69.1543 49.8047 68.5195C49.8047 82.3379 49.9512 93.1533 50.2441 100.966C50.2441 101.259 50.5859 101.649 51.2695 102.138C52.002 102.626 53.0518 103.09 54.4189 103.529C55.835 103.969 58.1055 104.408 61.2305 104.848C64.4043 105.238 66.2354 105.482 66.7236 105.58C67.5537 108.314 67.4072 111.317 66.2842 114.589C48.2666 114.198 37.3291 114.003 33.4717 114.003C30.6396 114.003 21.3379 114.198 5.56641 114.589C4.3457 111.22 4.3457 108.07 5.56641 105.141C16.1621 104.066 21.5088 102.626 21.6064 100.819ZM71.2646 35.1211C71.2646 19.9844 64.209 12.0254 50.0977 11.2441C49.9023 22.0352 49.8047 36.8301 49.8047 55.6289C51.6113 56.459 53.5645 56.9717 55.6641 57.167C60.7422 56.6787 64.5996 54.4814 67.2363 50.5752C69.9219 46.6689 71.2646 41.5176 71.2646 35.1211ZM24.6094 100.966C24.5117 104.579 18.8477 106.923 7.61719 107.997C7.22656 108.778 7.22656 109.926 7.61719 111.439C15.918 111.146 24.5361 111 33.4717 111C43.8721 111 53.8574 111.146 63.4277 111.439C63.8184 110.658 63.8184 109.511 63.4277 107.997C47.2168 107.021 39.0625 104.677 38.9648 100.966C38.6719 87.1475 38.5254 74.2812 38.5254 62.3672C44.6289 65.1016 51.5381 66.4688 59.2529 66.4688C69.165 66.4688 76.8066 63.5635 82.1777 57.7529C87.5977 51.9424 90.3076 44.4473 90.3076 35.2676C90.3076 25.6484 87.2559 17.9336 81.1523 12.123C75.0488 6.26367 66.2354 3.33398 54.7119 3.33398C51.1475 3.33398 46.1426 3.40723 39.6973 3.55371C33.252 3.7002 27.4658 3.77344 22.3389 3.77344C17.2607 3.77344 12.4023 3.62695 7.76367 3.33398C7.37305 4.21289 7.37305 5.36035 7.76367 6.77637C9.96094 6.97168 11.7676 7.16699 13.1836 7.3623C14.5996 7.55762 16.333 7.89941 18.3838 8.3877C20.4346 8.87598 21.9727 9.58398 22.998 10.5117C24.0723 11.3906 24.6582 12.4893 24.7559 13.8076C25.2441 25.2822 25.4883 38.9297 25.4883 54.75C25.4883 70.2285 25.1953 85.6338 24.6094 100.966Z" fill="white"/>
<path d="M27.0684 97.6562V93.7451C27.0684 92.7197 27.2905 91.9531 27.7349 91.4453C28.1743 90.9375 28.7114 90.6836 29.3462 90.6836C29.8491 90.6836 30.3374 90.8447 30.811 91.167C31.2847 91.4893 31.6704 91.9678 31.9683 92.6025C32.2612 93.2373 32.4077 93.9233 32.4077 94.6606C32.4077 95.1196 32.3247 95.7031 32.1587 96.4111L34.8687 97.2021C35.5132 97.3877 35.938 97.4805 36.1431 97.4805C36.2993 97.4805 36.4287 97.4146 36.5312 97.2827C36.6338 97.1509 36.6997 96.8359 36.729 96.3379L37 96.4111V100.359L36.729 100.278C36.729 99.7607 36.6411 99.4019 36.4653 99.2017C36.2847 98.9966 35.7915 98.7769 34.9858 98.5425L29.3315 96.9019C28.6528 96.7065 28.1987 96.6089 27.9692 96.6089C27.7983 96.6089 27.6567 96.6797 27.5444 96.8213C27.4321 96.958 27.3638 97.2632 27.3394 97.7368L27.0684 97.6562ZM31.6973 96.2866C31.8389 95.7349 31.9097 95.2905 31.9097 94.9536C31.9097 94.4214 31.7998 93.938 31.5801 93.5034C31.3604 93.064 31.0308 92.7222 30.5913 92.478C30.1519 92.229 29.6953 92.1045 29.2217 92.1045C28.7285 92.1045 28.3379 92.2559 28.0498 92.5586C27.7617 92.8613 27.6177 93.3203 27.6177 93.9355C27.6177 94.2676 27.6592 94.6704 27.7422 95.144L31.6973 96.2866ZM37 79.0026V86.3635L36.729 86.2609C36.7192 85.8703 36.6875 85.6091 36.6338 85.4772C36.5459 85.2722 36.4312 85.1208 36.2896 85.0231C36.0649 84.8718 35.6597 84.7106 35.0737 84.5397L29.0312 82.7893C28.5332 82.6428 28.167 82.5695 27.9326 82.5695C27.7471 82.5695 27.603 82.6379 27.5005 82.7746C27.3979 82.9064 27.3467 83.1579 27.3467 83.529C27.3467 83.612 27.3442 83.6779 27.3394 83.7268L27.0684 83.6389V79.5886L27.3394 79.6472C27.3394 80.1013 27.3833 80.4235 27.4712 80.614C27.5591 80.8044 27.7031 80.9631 27.9033 81.09C28.0352 81.1779 28.4453 81.322 29.1338 81.5222L35.0737 83.2434C35.5229 83.3752 35.8354 83.4411 36.0112 83.4411C36.1284 83.4411 36.2407 83.3752 36.3481 83.2434C36.4214 83.1604 36.458 82.9724 36.458 82.6794V81.7199C36.458 81.0217 36.3701 80.4675 36.1943 80.0573C36.0625 79.7546 35.8647 79.4763 35.6011 79.2224C35.4546 79.0856 35.0908 78.8439 34.5098 78.4973L34.1802 78.3068V78.0358L37 79.0026ZM26.8413 64.8534L35.103 65.6078C35.4888 65.6469 35.7427 65.6664 35.8647 65.6664C36.0601 65.6664 36.209 65.6298 36.3115 65.5565C36.4531 65.4638 36.5581 65.3393 36.6265 65.183C36.6948 65.0219 36.729 64.7533 36.729 64.3773L37 64.4579V68.369L36.729 68.2885V68.12C36.729 67.8026 36.6606 67.5438 36.5239 67.3437C36.4312 67.2021 36.2773 67.0922 36.0625 67.0141C35.9111 66.9604 35.5547 66.9091 34.9932 66.8603L33.7334 66.7431V69.5849L35.103 70.5956C35.4106 70.8251 35.6328 70.9691 35.7695 71.0277C35.9014 71.0863 36.0259 71.1156 36.1431 71.1156C36.2993 71.1156 36.4336 71.0521 36.5459 70.9252C36.6582 70.7982 36.7192 70.5883 36.729 70.2953L37 70.3759V73.3129L36.729 73.2323C36.7144 72.871 36.5947 72.5536 36.3701 72.2802C36.1406 72.0019 35.6548 71.5893 34.9126 71.0424L26.8413 65.1098V64.8534ZM29.2803 66.3036L33.1987 69.182V66.6845L29.2803 66.3036ZM27.0684 54.1612L34.854 51.0924L29.0386 49.4298C28.5601 49.2931 28.189 49.2247 27.9253 49.2247C27.7446 49.2247 27.603 49.2882 27.5005 49.4151C27.3979 49.5421 27.3467 49.7789 27.3467 50.1256C27.3467 50.1842 27.3442 50.2452 27.3394 50.3087L27.0684 50.2281V47.0348L27.3394 47.1227C27.3345 47.4547 27.3687 47.7013 27.4419 47.8624C27.5444 48.0919 27.6763 48.2628 27.8374 48.3751C28.0669 48.5313 28.4673 48.69 29.0386 48.8512L37.2271 51.1876V51.4513L28.8481 54.7545L35.0371 56.5196C35.5059 56.6515 35.8647 56.7174 36.1138 56.7174C36.2993 56.7174 36.4409 56.6588 36.5386 56.5416C36.6313 56.4195 36.6948 56.1339 36.729 55.6847L37 55.7579V58.878L36.729 58.7755C36.7192 58.3849 36.6851 58.1236 36.6265 57.9918C36.5386 57.7916 36.4238 57.6427 36.2822 57.545C36.0674 57.4034 35.6523 57.2447 35.0371 57.0689L28.1304 55.0987C27.8374 55.2892 27.6372 55.4942 27.5298 55.714C27.4175 55.9288 27.354 56.2657 27.3394 56.7247L27.0684 56.6441V54.1612ZM36.729 39.8069L37 39.8875V43.9744L36.729 43.8719C36.7192 43.4617 36.6851 43.1907 36.6265 43.0589C36.5435 42.844 36.4287 42.6854 36.2822 42.5828C36.0527 42.4217 35.6426 42.2557 35.0518 42.0848L29.0605 40.3563C28.5625 40.2098 28.1865 40.1365 27.9326 40.1365C27.8057 40.1365 27.6982 40.1683 27.6104 40.2317C27.5225 40.2952 27.4565 40.3929 27.4126 40.5247C27.3638 40.6517 27.3394 40.9031 27.3394 41.2791L27.0684 41.1912V37.3533L27.3394 37.4339C27.3345 37.7464 27.3687 37.9783 27.4419 38.1297C27.5396 38.3494 27.6787 38.5179 27.8594 38.6351C28.04 38.7474 28.4404 38.8938 29.0605 39.0745L35.0518 40.7957C35.6035 40.952 35.9551 41.0301 36.1064 41.0301C36.2285 41.0301 36.3335 41.0008 36.4214 40.9422C36.5044 40.8787 36.5703 40.7811 36.6191 40.6492C36.6631 40.5125 36.6997 40.2317 36.729 39.8069ZM27.0684 31.3633V23.8193L29.7051 24.6323V24.9106C29.3193 24.8179 28.9751 24.7715 28.6724 24.7715C28.3159 24.7715 28.0474 24.8813 27.8667 25.1011C27.73 25.2671 27.6616 25.6943 27.6616 26.3828V27.1665L34.5024 29.1294C35.3618 29.3784 35.8916 29.5029 36.0918 29.5029C36.2773 29.5029 36.4312 29.4248 36.5532 29.2686C36.6704 29.1123 36.729 28.8364 36.729 28.4409V28.104L37 28.1919V32.5132L36.729 32.4326V32.2422C36.729 31.8613 36.668 31.5684 36.5459 31.3633C36.4629 31.2217 36.314 31.0947 36.0991 30.9824C35.8794 30.8652 35.418 30.7041 34.7148 30.499L27.6616 28.4409V29.0342C27.6616 29.6055 27.7349 30.0669 27.8813 30.4185C28.0278 30.7651 28.2402 31.0459 28.5186 31.2607C28.7969 31.4756 29.1924 31.6514 29.7051 31.7881V32.0591L27.0684 31.3633ZM27.0684 18.0637V10.5197L29.7051 11.3327V11.611C29.3193 11.5183 28.9751 11.4719 28.6724 11.4719C28.3159 11.4719 28.0474 11.5817 27.8667 11.8015C27.73 11.9675 27.6616 12.3947 27.6616 13.0832V13.8669L34.5024 15.8298C35.3618 16.0788 35.8916 16.2033 36.0918 16.2033C36.2773 16.2033 36.4312 16.1252 36.5532 15.9689C36.6704 15.8127 36.729 15.5368 36.729 15.1413V14.8044L37 14.8923V19.2136L36.729 19.133V18.9426C36.729 18.5617 36.668 18.2688 36.5459 18.0637C36.4629 17.9221 36.314 17.7951 36.0991 17.6828C35.8794 17.5656 35.418 17.4045 34.7148 17.1994L27.6616 15.1413V15.7346C27.6616 16.3059 27.7349 16.7673 27.8813 17.1189C28.0278 17.4655 28.2402 17.7463 28.5186 17.9611C28.7969 18.176 29.1924 18.3518 29.7051 18.4885V18.7595L27.0684 18.0637Z" fill="white"/>
</svg>
