<svg width="152" height="152" viewBox="0 0 152 152" fill="none" xmlns="http://www.w3.org/2000/svg">
<circle cx="76" cy="76" r="75.5" fill="black" stroke="black"/>
<path d="M67.9648 28.3877C71.9688 28.1924 74.8252 28.0947 76.5342 28.0947C94.3564 28.0947 103.268 37.1035 103.268 55.1211C103.268 62.8848 101.534 69.0127 98.0674 73.5049C94.6006 77.9482 89.4248 80.1699 82.54 80.1699C77.3643 80.1699 72.3594 79.2666 67.5254 77.46C67.5254 62.3721 67.6719 46.0146 67.9648 28.3877ZM50.6064 120.819C51.1924 108.612 51.4854 93.2559 51.4854 74.75C51.4854 59.0273 51.2412 45.4287 50.7529 33.9541C50.6553 32.1475 45.2109 30.707 34.4199 29.6328C33.5898 26.4102 33.6875 23.2607 34.7129 20.1846C39.8887 20.3799 45.4551 20.502 51.4121 20.5508C57.3691 20.5996 64.2051 20.5752 71.9199 20.4775C79.6836 20.3799 85.3721 20.3311 88.9854 20.3311C102.511 20.3311 112.813 23.5049 119.894 29.8525C126.974 36.2002 130.514 44.6719 130.514 55.2676C130.514 65.9609 126.583 74.335 118.722 80.3896C110.909 86.4443 100.753 89.4717 88.2529 89.4717C84.7373 89.4717 81.5879 89.1543 78.8047 88.5195C78.8047 102.338 78.9512 113.153 79.2441 120.966C79.2441 121.259 79.5859 121.649 80.2695 122.138C81.002 122.626 82.0518 123.09 83.4189 123.529C84.835 123.969 87.1055 124.408 90.2305 124.848C93.4043 125.238 95.2354 125.482 95.7236 125.58C96.5537 128.314 96.4072 131.317 95.2842 134.589C77.2666 134.198 66.3291 134.003 62.4717 134.003C59.6396 134.003 50.3379 134.198 34.5664 134.589C33.3457 131.22 33.3457 128.07 34.5664 125.141C45.1621 124.066 50.5088 122.626 50.6064 120.819ZM100.265 55.1211C100.265 39.9844 93.209 32.0254 79.0977 31.2441C78.9023 42.0352 78.8047 56.8301 78.8047 75.6289C80.6113 76.459 82.5645 76.9717 84.6641 77.167C89.7422 76.6787 93.5996 74.4814 96.2363 70.5752C98.9219 66.6689 100.265 61.5176 100.265 55.1211ZM53.6094 120.966C53.5117 124.579 47.8477 126.923 36.6172 127.997C36.2266 128.778 36.2266 129.926 36.6172 131.439C44.918 131.146 53.5361 131 62.4717 131C72.8721 131 82.8574 131.146 92.4277 131.439C92.8184 130.658 92.8184 129.511 92.4277 127.997C76.2168 127.021 68.0625 124.677 67.9648 120.966C67.6719 107.147 67.5254 94.2812 67.5254 82.3672C73.6289 85.1016 80.5381 86.4688 88.2529 86.4688C98.165 86.4688 105.807 83.5635 111.178 77.7529C116.598 71.9424 119.308 64.4473 119.308 55.2676C119.308 45.6484 116.256 37.9336 110.152 32.123C104.049 26.2637 95.2354 23.334 83.7119 23.334C80.1475 23.334 75.1426 23.4072 68.6973 23.5537C62.252 23.7002 56.4658 23.7734 51.3389 23.7734C46.2607 23.7734 41.4023 23.627 36.7637 23.334C36.373 24.2129 36.373 25.3604 36.7637 26.7764C38.9609 26.9717 40.7676 27.167 42.1836 27.3623C43.5996 27.5576 45.333 27.8994 47.3838 28.3877C49.4346 28.876 50.9727 29.584 51.998 30.5117C53.0723 31.3906 53.6582 32.4893 53.7559 33.8076C54.2441 45.2822 54.4883 58.9297 54.4883 74.75C54.4883 90.2285 54.1953 105.634 53.6094 120.966Z" fill="white"/>
<path d="M56.0684 117.656V113.745C56.0684 112.72 56.2905 111.953 56.7349 111.445C57.1743 110.938 57.7114 110.684 58.3462 110.684C58.8491 110.684 59.3374 110.845 59.811 111.167C60.2847 111.489 60.6704 111.968 60.9683 112.603C61.2612 113.237 61.4077 113.923 61.4077 114.661C61.4077 115.12 61.3247 115.703 61.1587 116.411L63.8687 117.202C64.5132 117.388 64.938 117.48 65.1431 117.48C65.2993 117.48 65.4287 117.415 65.5312 117.283C65.6338 117.151 65.6997 116.836 65.729 116.338L66 116.411V120.359L65.729 120.278C65.729 119.761 65.6411 119.402 65.4653 119.202C65.2847 118.997 64.7915 118.777 63.9858 118.542L58.3315 116.902C57.6528 116.707 57.1987 116.609 56.9692 116.609C56.7983 116.609 56.6567 116.68 56.5444 116.821C56.4321 116.958 56.3638 117.263 56.3394 117.737L56.0684 117.656ZM60.6973 116.287C60.8389 115.735 60.9097 115.291 60.9097 114.954C60.9097 114.421 60.7998 113.938 60.5801 113.503C60.3604 113.064 60.0308 112.722 59.5913 112.478C59.1519 112.229 58.6953 112.104 58.2217 112.104C57.7285 112.104 57.3379 112.256 57.0498 112.559C56.7617 112.861 56.6177 113.32 56.6177 113.936C56.6177 114.268 56.6592 114.67 56.7422 115.144L60.6973 116.287ZM66 99.0026V106.363L65.729 106.261C65.7192 105.87 65.6875 105.609 65.6338 105.477C65.5459 105.272 65.4312 105.121 65.2896 105.023C65.0649 104.872 64.6597 104.711 64.0737 104.54L58.0312 102.789C57.5332 102.643 57.167 102.57 56.9326 102.57C56.7471 102.57 56.603 102.638 56.5005 102.775C56.3979 102.906 56.3467 103.158 56.3467 103.529C56.3467 103.612 56.3442 103.678 56.3394 103.727L56.0684 103.639V99.5886L56.3394 99.6472C56.3394 100.101 56.3833 100.424 56.4712 100.614C56.5591 100.804 56.7031 100.963 56.9033 101.09C57.0352 101.178 57.4453 101.322 58.1338 101.522L64.0737 103.243C64.5229 103.375 64.8354 103.441 65.0112 103.441C65.1284 103.441 65.2407 103.375 65.3481 103.243C65.4214 103.16 65.458 102.972 65.458 102.679V101.72C65.458 101.022 65.3701 100.467 65.1943 100.057C65.0625 99.7546 64.8647 99.4763 64.6011 99.2224C64.4546 99.0856 64.0908 98.8439 63.5098 98.4973L63.1802 98.3068V98.0358L66 99.0026ZM55.8413 84.8534L64.103 85.6078C64.4888 85.6469 64.7427 85.6664 64.8647 85.6664C65.0601 85.6664 65.209 85.6298 65.3115 85.5565C65.4531 85.4638 65.5581 85.3393 65.6265 85.183C65.6948 85.0219 65.729 84.7533 65.729 84.3773L66 84.4579V88.369L65.729 88.2885V88.12C65.729 87.8026 65.6606 87.5438 65.5239 87.3437C65.4312 87.2021 65.2773 87.0922 65.0625 87.0141C64.9111 86.9604 64.5547 86.9091 63.9932 86.8603L62.7334 86.7431V89.5849L64.103 90.5956C64.4106 90.8251 64.6328 90.9691 64.7695 91.0277C64.9014 91.0863 65.0259 91.1156 65.1431 91.1156C65.2993 91.1156 65.4336 91.0521 65.5459 90.9252C65.6582 90.7982 65.7192 90.5883 65.729 90.2953L66 90.3759V93.3129L65.729 93.2323C65.7144 92.871 65.5947 92.5536 65.3701 92.2802C65.1406 92.0019 64.6548 91.5893 63.9126 91.0424L55.8413 85.1098V84.8534ZM58.2803 86.3036L62.1987 89.182V86.6845L58.2803 86.3036ZM56.0684 74.1612L63.854 71.0924L58.0386 69.4298C57.5601 69.2931 57.189 69.2247 56.9253 69.2247C56.7446 69.2247 56.603 69.2882 56.5005 69.4151C56.3979 69.5421 56.3467 69.7789 56.3467 70.1256C56.3467 70.1842 56.3442 70.2452 56.3394 70.3087L56.0684 70.2281V67.0348L56.3394 67.1227C56.3345 67.4547 56.3687 67.7013 56.4419 67.8624C56.5444 68.0919 56.6763 68.2628 56.8374 68.3751C57.0669 68.5313 57.4673 68.69 58.0386 68.8512L66.2271 71.1876V71.4513L57.8481 74.7545L64.0371 76.5196C64.5059 76.6515 64.8647 76.7174 65.1138 76.7174C65.2993 76.7174 65.4409 76.6588 65.5386 76.5416C65.6313 76.4195 65.6948 76.1339 65.729 75.6847L66 75.7579V78.878L65.729 78.7755C65.7192 78.3849 65.6851 78.1236 65.6265 77.9918C65.5386 77.7916 65.4238 77.6427 65.2822 77.545C65.0674 77.4034 64.6523 77.2447 64.0371 77.0689L57.1304 75.0987C56.8374 75.2892 56.6372 75.4942 56.5298 75.714C56.4175 75.9288 56.354 76.2657 56.3394 76.7247L56.0684 76.6441V74.1612ZM65.729 59.8069L66 59.8875V63.9744L65.729 63.8719C65.7192 63.4617 65.6851 63.1907 65.6265 63.0589C65.5435 62.844 65.4287 62.6854 65.2822 62.5828C65.0527 62.4217 64.6426 62.2557 64.0518 62.0848L58.0605 60.3563C57.5625 60.2098 57.1865 60.1365 56.9326 60.1365C56.8057 60.1365 56.6982 60.1683 56.6104 60.2317C56.5225 60.2952 56.4565 60.3929 56.4126 60.5247C56.3638 60.6517 56.3394 60.9031 56.3394 61.2791L56.0684 61.1912V57.3533L56.3394 57.4339C56.3345 57.7464 56.3687 57.9783 56.4419 58.1297C56.5396 58.3494 56.6787 58.5179 56.8594 58.6351C57.04 58.7474 57.4404 58.8938 58.0605 59.0745L64.0518 60.7957C64.6035 60.952 64.9551 61.0301 65.1064 61.0301C65.2285 61.0301 65.3335 61.0008 65.4214 60.9422C65.5044 60.8787 65.5703 60.7811 65.6191 60.6492C65.6631 60.5125 65.6997 60.2317 65.729 59.8069ZM56.0684 51.3633V43.8193L58.7051 44.6323V44.9106C58.3193 44.8179 57.9751 44.7715 57.6724 44.7715C57.3159 44.7715 57.0474 44.8813 56.8667 45.1011C56.73 45.2671 56.6616 45.6943 56.6616 46.3828V47.1665L63.5024 49.1294C64.3618 49.3784 64.8916 49.5029 65.0918 49.5029C65.2773 49.5029 65.4312 49.4248 65.5532 49.2686C65.6704 49.1123 65.729 48.8364 65.729 48.4409V48.104L66 48.1919V52.5132L65.729 52.4326V52.2422C65.729 51.8613 65.668 51.5684 65.5459 51.3633C65.4629 51.2217 65.314 51.0947 65.0991 50.9824C64.8794 50.8652 64.418 50.7041 63.7148 50.499L56.6616 48.4409V49.0342C56.6616 49.6055 56.7349 50.0669 56.8813 50.4185C57.0278 50.7651 57.2402 51.0459 57.5186 51.2607C57.7969 51.4756 58.1924 51.6514 58.7051 51.7881V52.0591L56.0684 51.3633ZM56.0684 38.0637V30.5197L58.7051 31.3327V31.611C58.3193 31.5183 57.9751 31.4719 57.6724 31.4719C57.3159 31.4719 57.0474 31.5817 56.8667 31.8015C56.73 31.9675 56.6616 32.3947 56.6616 33.0832V33.8669L63.5024 35.8298C64.3618 36.0788 64.8916 36.2033 65.0918 36.2033C65.2773 36.2033 65.4312 36.1252 65.5532 35.9689C65.6704 35.8127 65.729 35.5368 65.729 35.1413V34.8044L66 34.8923V39.2136L65.729 39.133V38.9426C65.729 38.5617 65.668 38.2688 65.5459 38.0637C65.4629 37.9221 65.314 37.7951 65.0991 37.6828C64.8794 37.5656 64.418 37.4045 63.7148 37.1994L56.6616 35.1413V35.7346C56.6616 36.3059 56.7349 36.7673 56.8813 37.1189C57.0278 37.4655 57.2402 37.7463 57.5186 37.9611C57.7969 38.176 58.1924 38.3518 58.7051 38.4885V38.7595L56.0684 38.0637Z" fill="white"/>
</svg>